#!OML:ASF X:\für Bonn\!DataBase\2005_08_10_Bjorn_Final\c3d\bjorn.ASF
:FULLY-SPECIFIED
:DEGREES
156
root -17.4698 17.7119 -5.39183 -177.059 -201.783 -183.266
lowerback -2.32318 4.94931 1.08076
upperback 6.58219 6.96181 -4.26608
thorax 8.93849 3.69686 -4.39708
lowerneck -3.34494 2.48551 6.90174
upperneck 4.08794 3.05127 -1.84013
head 2.02385 1.58973 -1.69355
rclavicle 1.66979e-014 1.59028e-014
rhumerus -34.9222 25.0508 -107.626
rradius 73.7162
rwrist 13.5646
rhand -14.631 23.3904
rfingers 7.12502
rthumb 11.5206 -6.27298
lclavicle 1.66979e-014 1.59028e-014
lhumerus -43.9771 -12.5555 93.6926
lradius 81.0872
lwrist 4.01806
lhand -35.0774 -20.9087
lfingers 7.12502
lthumb -8.21946 8.91141
rfemur -6.78993 -8.42245 2.79762
rtibia 65.3493
rfoot -6.30136 11.4117
rtoes -18.1474
lfemur -25.8978 -0.610192 -33.7565
ltibia 51.356
lfoot -24.2632 2.63947
ltoes 13.4431
157
root -17.3602 17.6492 -5.16543 -177.161 -202.183 -183.361
lowerback -2.24496 4.8082 1.09748
upperback 6.71582 6.7832 -4.32867
thorax 9.03329 3.6178 -4.49615
lowerneck -3.60486 2.60982 6.8334
upperneck 3.98226 3.20086 -1.82351
head 2.04116 1.66068 -1.6691
rclavicle 1.74931e-014 -1.90833e-014
rhumerus -35.4762 23.6643 -107.635
rradius 72.4228
rwrist 13.7865
rhand -14.2952 23.2047
rfingers 7.12502
rthumb 11.8445 -6.44027
lclavicle 1.74931e-014 -1.90833e-014
lhumerus -42.6114 -12.5599 93.7784
lradius 81.6884
lwrist 4.15947
lhand -35.2421 -20.4748
lfingers 7.12502
lthumb -8.37842 9.33898
rfemur -8.74807 -8.10935 2.81098
rtibia 67.0263
rfoot -7.272 10.3773
rtoes -18.7166
lfemur -25.0781 -1.15333 -33.8288
ltibia 51.8864
lfoot -25.2513 3.02505
ltoes 12.3547
158
root -17.2461 17.5959 -4.93694 -177.25 -202.639 -183.475
lowerback -2.19175 4.66167 1.14216
upperback 6.84788 6.59428 -4.3718
thorax 9.1404 3.53481 -4.5894
lowerneck -3.86791 2.71851 6.70197
upperneck 3.87354 3.32934 -1.71487
head 2.0528 1.72242 -1.60365
rclavicle -1.15295e-013 6.04305e-014
rhumerus -35.967 22.2486 -107.514
rradius 71.217
rwrist 13.9566
rhand -14.1873 23.2318
rfingers 7.12502
rthumb 11.9485 -6.40723
lclavicle -1.15295e-013 6.04305e-014
lhumerus -41.2408 -12.6888 93.8969
lradius 82.2874
lwrist 4.23243
lhand -35.4236 -20.1434
lfingers 7.12502
lthumb -8.55354 9.6634
rfemur -10.731 -7.95294 2.87365
rtibia 68.5694
rfoot -8.37512 9.33901
rtoes -20.3944
lfemur -24.1326 -1.72206 -33.8737
ltibia 52.173
lfoot -26.2014 3.32059
ltoes 11.3923
159
root -17.1284 17.5519 -4.70645 -177.202 -203.096 -183.505
lowerback -2.25548 4.50397 1.06837
upperback 6.94518 6.39608 -4.39916
thorax 9.25987 3.43651 -4.59328
lowerneck -4.16903 2.84942 6.37496
upperneck 3.85834 3.48907 -1.43011
head 2.09312 1.80272 -1.44447
rclavicle 2.3059e-014 -3.18055e-014
rhumerus -36.565 20.9113 -107.287
rradius 70.2375
rwrist 14.0489
rhand -14.2943 23.5031
rfingers 7.12502
rthumb 11.8453 -6.14187
lclavicle 2.3059e-014 -3.18055e-014
lhumerus -39.8567 -12.8899 94.0638
lradius 82.8753
lwrist 4.22925
lhand -35.7184 -19.9737
lfingers 7.12502
lthumb -8.83806 9.82122
rfemur -12.9063 -8.04612 2.90021
rtibia 69.9866
rfoot -9.6659 8.32044
rtoes -24.1682
lfemur -23.1554 -2.26726 -34.0034
ltibia 52.201
lfoot -27.0838 3.50541
ltoes 10.9131
160
root -17.004 17.5222 -4.47393 -177.065 -203.578 -183.446
lowerback -2.35486 4.33457 0.937256
upperback 7.01046 6.18727 -4.45369
thorax 9.36116 3.32925 -4.59443
lowerneck -4.499 2.99571 5.95736
upperneck 3.91551 3.66622 -0.960329
head 2.15479 1.89678 -1.20875
rclavicle 9.66093e-014 1.59028e-015
rhumerus -37.2769 19.6281 -107.053
rradius 69.5584
rwrist 14.1841
rhand -14.5062 23.7149
rfingers 7.12502
rthumb 11.641 -5.94169
lclavicle 9.66093e-014 1.59028e-015
lhumerus -38.482 -13.1356 94.1948
lradius 83.4129
lwrist 4.10705
lhand -36.0826 -20.1385
lfingers 7.12502
lthumb -9.18955 9.64128
rfemur -15.1117 -8.2638 2.93377
rtibia 71.1724
rfoot -10.9483 7.46648
rtoes -27.7166
lfemur -22.0753 -2.80667 -34.2165
ltibia 51.9519
lfoot -27.8106 3.61251
ltoes 10.9163
161
root -16.8795 17.4977 -4.24121 -176.824 -204.093 -183.318
lowerback -2.55727 4.13933 0.716026
upperback 7.06376 5.95168 -4.50909
thorax 9.49811 3.20155 -4.54329
lowerneck -4.77434 3.13482 5.56892
upperneck 3.95699 3.8407 -0.557178
head 2.20285 1.98869 -1.00122
rclavicle -5.00937e-014 3.65764e-014
rhumerus -38.0962 18.4811 -106.754
rradius 69.2091
rwrist 14.236
rhand -14.8153 23.8454
rfingers 7.12502
rthumb 11.3429 -5.82787
lclavicle -5.00937e-014 3.65764e-014
lhumerus -37.1148 -13.396 94.3054
lradius 83.9617
lwrist 3.77218
lhand -36.4465 -20.3689
lfingers 7.12502
lthumb -9.54067 9.39506
rfemur -17.3928 -8.5765 2.94148
rtibia 72.1826
rfoot -11.9367 7.11163
rtoes -28.8309
lfemur -20.9575 -3.35527 -34.4752
ltibia 51.463
lfoot -28.4197 3.59674
ltoes 11.2447
